<?xml version="1.0" encoding="utf-8"?>
<!-- Generator: Adobe Illustrator 23.0.3, SVG Export Plug-In . SVG Version: 6.00 Build 0)  -->
<svg version="1.1" id="レイヤー_1" xmlns="http://www.w3.org/2000/svg" xmlns:xlink="http://www.w3.org/1999/xlink" x="0px"
	 y="0px" viewBox="0 0 453.5 453.5" enable-background="new 0 0 453.5 453.5" xml:space="preserve">
<rect x="-3.6" y="-3.6" display="none" fill="#221E1F" width="460.8" height="460.8"/>
<g display="none">
	<path display="inline" fill="#FFFFFF" d="M51.2,374.8c-2.5-1.1-4.7-2.5-6.5-4.3c-1.8-1.8-3.2-4.1-4.2-6.7c-1-2.6-1.5-5.5-1.5-8.7
		c0-3,0.5-5.8,1.5-8.4c1-2.6,2.4-4.9,4.1-6.8c1.8-1.9,3.9-3.4,6.4-4.5c2.5-1.1,5.3-1.6,8.4-1.6c3,0,5.7,0.5,8.2,1.6s4.7,2.6,6.5,4.5
		c1.8,1.9,3.2,4.1,4.2,6.8c1,2.6,1.4,5.5,1.4,8.6c0,3.1-0.5,5.9-1.4,8.5c-1,2.6-2.4,4.8-4.2,6.7c-1.8,1.9-3.9,3.4-6.5,4.5
		c-2.5,1.1-5.2,1.6-8.2,1.6C56.4,376.4,53.7,375.9,51.2,374.8 M26.2,292.8c-1.4,1.1-2.1,2.9-2.1,5.3v53.9c0,6.4,0.9,12,2.6,16.7
		c1.8,4.7,4.2,8.7,7.4,11.9c3.2,3.2,6.9,5.5,11.3,7.1c4.3,1.6,9.1,2.4,14.3,2.4c5.2,0,9.9-0.9,14.3-2.6c4.3-1.8,8.1-4.2,11.3-7.2
		c3.2-3.1,5.6-6.8,7.4-11.1c1.8-4.3,2.6-9,2.6-14c0-5.1-0.9-9.8-2.6-14c-1.7-4.3-4.1-7.9-7.1-11.1c-3-3.1-6.6-5.5-10.7-7.2
		c-4.1-1.7-8.5-2.6-13.4-2.6c-5,0-9.4,1-13.3,3c-3.9,2-6.9,4.4-9.1,7.2v-37.8c-0.4-0.2-1.3-0.5-2.6-0.9c-1.3-0.4-2.8-0.6-4.3-0.6
		C29.6,291.1,27.6,291.7,26.2,292.8 M110.8,323.7c-1.4,1.1-2.1,2.9-2.1,5.3v59.1h15v-64.7c-0.4-0.2-1.3-0.5-2.6-0.9
		c-1.3-0.4-2.8-0.6-4.3-0.6C114.1,322,112.2,322.6,110.8,323.7 M109.7,295c-1.8,1.8-2.6,3.9-2.6,6.5c0,2.5,0.9,4.7,2.6,6.5
		c1.8,1.8,3.9,2.6,6.5,2.6c2.5,0,4.7-0.9,6.4-2.6c1.8-1.8,2.6-3.9,2.6-6.5c0-2.5-0.9-4.7-2.6-6.5c-1.8-1.8-3.9-2.6-6.4-2.6
		C113.6,292.4,111.5,293.3,109.7,295 M147.2,326.8c-5,4.4-7.4,10.7-7.4,18.8v42.5h15v-38.2c0-10.9,5.1-16.3,15.4-16.3
		c2.8,0,5.3,0.3,7.5,0.9c2.2,0.6,4,1.3,5.5,2c0.5-0.3,1.2-1.2,2-2.6c0.8-1.4,1.3-2.9,1.3-4.3c0-3.2-1.7-5.5-5.2-7
		c-3.5-1.5-8-2.3-13.5-2.3C159,320.2,152.1,322.4,147.2,326.8 M212.5,322.5c-4.4,1.5-8.3,3.8-11.5,6.8c-3.2,3-5.8,6.7-7.6,11.1
		c-1.8,4.4-2.8,9.4-2.8,15c0,5.6,0.9,10.6,2.8,14.9c1.9,4.3,4.5,7.9,7.7,10.9c3.2,2.9,7,5.2,11.3,6.7c4.3,1.5,8.9,2.2,13.8,2.2
		c3.2,0,6-0.2,8.5-0.7c2.5-0.4,4.7-1,6.7-1.6c2-0.7,3.7-1.4,5.3-2.1c1.5-0.7,2.8-1.5,3.9-2.2l-6.3-11.2c-1,0.6-2.8,1.5-5.5,2.7
		c-2.7,1.2-6.2,1.8-10.6,1.8c-3.1,0-5.9-0.4-8.6-1.3c-2.6-0.8-5-2.1-7-3.9c-2-1.8-3.6-4-4.7-6.7c-1.1-2.7-1.7-6-1.7-9.9
		c0-3.7,0.5-6.9,1.6-9.5c1.1-2.7,2.6-4.9,4.5-6.7c1.9-1.8,4.1-3.1,6.7-4c2.6-0.9,5.4-1.3,8.4-1.3c4.4,0,8.1,0.7,11.1,2
		c3,1.4,5.3,2.8,6.8,4.3c1.1-0.8,2.2-1.9,3.4-3.4c1.2-1.5,1.8-3.1,1.8-4.9c0-1.3-0.4-2.6-1.3-4c-0.8-1.3-2.2-2.5-4.1-3.6
		c-1.9-1.1-4.3-1.9-7.4-2.6c-3-0.7-6.7-1.1-11-1.1C221.7,320.2,216.9,320.9,212.5,322.5 M261.3,292.8c-1.4,1.1-2.1,2.9-2.1,5.3v90.1
		h15v-35.4c0-5.7,1.5-10.3,4.5-13.8c3-3.5,7.5-5.2,13.5-5.2c5.9,0,10,1.5,12.4,4.5c2.4,3,3.6,7.4,3.6,13.2v36.7h15v-41.2
		c0-4.5-0.7-8.4-2-11.7c-1.3-3.3-3.2-6.1-5.7-8.4c-2.5-2.2-5.4-3.9-8.8-5.1c-3.4-1.1-7.1-1.7-11.1-1.7c-5.6,0-10.2,0.9-13.7,2.8
		c-3.5,1.8-6.1,3.8-7.9,5.9v-36.2c-0.4-0.2-1.3-0.5-2.6-0.9c-1.3-0.4-2.8-0.6-4.3-0.6C264.7,291.1,262.7,291.7,261.3,292.8
		 M341.3,323.7c-1.4,1.1-2.1,2.9-2.1,5.3v59.1h15v-64.7c-0.4-0.2-1.3-0.5-2.6-0.9c-1.3-0.4-2.8-0.6-4.3-0.6
		C344.7,322,342.7,322.6,341.3,323.7 M340.3,295c-1.8,1.8-2.6,3.9-2.6,6.5c0,2.5,0.9,4.7,2.6,6.5c1.8,1.8,3.9,2.6,6.5,2.6
		c2.5,0,4.7-0.9,6.4-2.6c1.8-1.8,2.6-3.9,2.6-6.5c0-2.5-0.9-4.7-2.6-6.5c-1.8-1.8-3.9-2.6-6.4-2.6C344.2,292.4,342,293.3,340.3,295
		 M373.1,292.8c-1.4,1.1-2.1,2.9-2.1,5.3v90.1h15v-95.6c-0.4-0.2-1.3-0.5-2.6-0.9c-1.3-0.4-2.8-0.6-4.3-0.6
		C376.5,291.1,374.5,291.7,373.1,292.8 M417.7,317.7v-25.2c-0.4-0.2-1.3-0.5-2.6-0.9c-1.3-0.4-2.8-0.6-4.3-0.6
		c-2.5,0-4.5,0.6-5.9,1.7c-1.4,1.1-2.1,2.9-2.1,5.3v90.1h15v-55.7l14.8-28.5L417.7,317.7z"/>
	<g display="inline">
		<defs>
			<path id="SVGID_1_" d="M48.2,323.1c-3.9,2-6.9,4.4-9.1,7.2v22.2c0.2-2,0.7-4,1.4-5.8c1-2.6,2.4-4.9,4.1-6.8
				c1.8-1.9,3.9-3.4,6.4-4.5c2.5-1.1,5.3-1.6,8.4-1.6c1.4,0,2.8,0.1,4.1,0.4v-13.8c-0.6,0-1.3,0-1.9,0
				C56.5,320.2,52.1,321.2,48.2,323.1"/>
		</defs>
		<clipPath id="SVGID_2_">
			<use xlink:href="#SVGID_1_"  overflow="visible"/>
		</clipPath>
		
			<linearGradient id="SVGID_3_" gradientUnits="userSpaceOnUse" x1="-829.9348" y1="677.4692" x2="-827.691" y2="677.4692" gradientTransform="matrix(18.4954 -2.0642 -2.0642 -18.4954 16767.5762 11156.8018)">
			<stop  offset="0" style="stop-color:#58595B"/>
			<stop  offset="1" style="stop-color:#FFFFFF"/>
		</linearGradient>
		<polygon clip-path="url(#SVGID_2_)" fill="url(#SVGID_3_)" points="35.6,320.6 63.2,317.5 67,352.1 39.4,355.2 		"/>
	</g>
	<g display="inline">
		<defs>
			<path id="SVGID_4_" d="M274.2,310.7V357h0v-4.3c0-5.7,1.5-10.3,4.5-13.8c3-3.5,7.5-5.2,13.5-5.2c2.4,0,4.5,0.2,6.3,0.7v-14.3
				c-0.9-0.1-1.8-0.1-2.7-0.1c-5.6,0-10.2,0.9-13.7,2.8c-3.5,1.8-6.1,3.8-7.9,5.9L274.2,310.7L274.2,310.7z"/>
		</defs>
		<clipPath id="SVGID_5_">
			<use xlink:href="#SVGID_4_"  overflow="visible"/>
		</clipPath>
		
			<linearGradient id="SVGID_6_" gradientUnits="userSpaceOnUse" x1="-822.9766" y1="676.8262" x2="-820.7328" y2="676.8262" gradientTransform="matrix(18.4954 -2.0642 -2.0642 -18.4954 16872.332 11156.8018)">
			<stop  offset="0" style="stop-color:#58595B"/>
			<stop  offset="1" style="stop-color:#FFFFFF"/>
		</linearGradient>
		<polygon clip-path="url(#SVGID_5_)" fill="url(#SVGID_6_)" points="269.1,311.2 298.2,308 303.6,356.4 274.5,359.7 		"/>
	</g>
</g>
<g>
	<circle fill="#FFFFFF" cx="219.3" cy="150.1" r="104"/>
	<linearGradient id="SVGID_7_" gradientUnits="userSpaceOnUse" x1="305.3413" y1="307.7358" x2="305.3413" y2="99.5726">
		<stop  offset="0" style="stop-color:#3C7536"/>
		<stop  offset="1" style="stop-color:#9DD115"/>
	</linearGradient>
	<path fill="url(#SVGID_7_)" d="M296,140.7c-0.2,0-0.4,0-0.7-0.1c-0.8-0.3-1.4-1.1-1.4-1.9V82.6c0-0.9,0.3-1.6,1.1-1.9
		c0.2-0.1,0.5-0.1,0.7-0.1c0.6,0,1.1,0.2,1.5,0.7c8.4,9.5,14.9,20.2,19.3,32c0.2,0.7,0.1,1.4-0.3,2l-18.7,24.7
		C297.2,140.5,296.6,140.7,296,140.7z"/>
	<linearGradient id="SVGID_8_" gradientUnits="userSpaceOnUse" x1="229.8864" y1="307.1946" x2="229.8864" y2="99.5531">
		<stop  offset="0" style="stop-color:#3C7536"/>
		<stop  offset="1" style="stop-color:#9DD115"/>
	</linearGradient>
	<path fill="url(#SVGID_8_)" d="M227.3,253.7c-0.5,0-1.1-0.2-1.5-0.6c-0.4-0.4-0.7-0.9-0.7-1.5c-1.1-40.2-4.7-111.4-17-138.7
		c-0.2-0.4-0.2-0.8-0.1-1.2c3.2-18.2,5-35.2,5-47.8V48.2c0-1.1,0.9-2,2-2.1c1.6-0.1,3.1-0.1,4.5-0.1c6.1,0,12.2,0.5,18.3,1.6
		c1,0.2,1.7,1,1.7,2v47.6c0,46.1,4.8,104.6,12.2,149.7c0.2,1-0.4,2-1.4,2.3c-7.5,2.3-15.1,3.8-22.9,4.4
		C227.4,253.7,227.3,253.7,227.3,253.7z"/>
	<linearGradient id="SVGID_9_" gradientUnits="userSpaceOnUse" x1="267.6927" y1="307.0222" x2="267.6927" y2="99.5224">
		<stop  offset="3.724167e-03" style="stop-color:#3C7536"/>
		<stop  offset="1" style="stop-color:#9DD115"/>
	</linearGradient>
	<path fill="url(#SVGID_9_)" d="M265.6,243c-0.3,0-0.6-0.1-0.9-0.2c-0.6-0.3-1-0.9-1.1-1.5c-4.2-26.7-7.5-56.8-9.5-88.1
		c0-0.1,0-0.3,0-0.4c4.5-31.3,13.9-51.1,23.4-67.9c0.4-0.7,1.1-1,1.8-1c0.2,0,0.3,0,0.5,0.1c0.9,0.2,1.5,1.1,1.5,2v146.7
		c0,0.7-0.3,1.3-0.9,1.7c-4.4,3.2-9.1,6.1-14,8.5C266.2,242.9,265.9,243,265.6,243z"/>
	<linearGradient id="SVGID_10_" gradientUnits="userSpaceOnUse" x1="160.0125" y1="307.816" x2="160.0125" y2="99.5032">
		<stop  offset="0" style="stop-color:#3C7536"/>
		<stop  offset="1" style="stop-color:#9DD115"/>
	</linearGradient>
	<path fill="url(#SVGID_10_)" d="M171.2,196.2c-0.6,0-1.1-0.2-1.5-0.7c-12.2-13.2-20.5-32.5-22.7-38.1c-0.1-0.2-0.1-0.5-0.1-0.8
		V76.6c0-0.5,0.1-1.2,0.5-1.5c0.4-0.4,0.9-0.6,1.5-0.6c0.2,0,0.3,0,0.5,0.1c0.7,0.2,1.4,0.8,1.6,1.5l10.1,34.4
		c8,27.2,12.1,55.4,12.3,83.8c0,0.8-0.5,1.6-1.3,1.9C171.7,196.2,171.4,196.2,171.2,196.2z"/>
	<linearGradient id="SVGID_11_" gradientUnits="userSpaceOnUse" x1="263.6004" y1="307.569" x2="263.6004" y2="99.5958">
		<stop  offset="0" style="stop-color:#3C7536"/>
		<stop  offset="1" style="stop-color:#9DD115"/>
	</linearGradient>
	<path fill="url(#SVGID_11_)" d="M254.1,100.6c-0.1,0-0.3,0-0.4,0c-1-0.2-1.6-1-1.6-2c0-0.4,0-44.3,0-44.3c0-0.7,0.3-1.3,0.9-1.7
		c0.4-0.2,0.7-0.3,1.1-0.3c0.2,0,0.5,0,0.7,0.1c6.7,2.4,13.3,5.5,19.3,9.3c1,0.6,1.3,1.8,0.7,2.8c-0.7,1.2-1.5,2.5-2.2,3.8
		c-5.3,8.9-11.2,19-16.6,31.2C255.7,100.1,254.9,100.6,254.1,100.6z"/>
	<linearGradient id="SVGID_12_" gradientUnits="userSpaceOnUse" x1="308.4789" y1="307.4479" x2="308.4789" y2="99.2846">
		<stop  offset="0" style="stop-color:#3C7536"/>
		<stop  offset="1" style="stop-color:#9DD115"/>
	</linearGradient>
	<path fill="url(#SVGID_12_)" d="M295.7,219.7c-0.2,0-0.5,0-0.7-0.1c-0.8-0.3-1.3-1.1-1.3-1.9v-51.8c0-0.5,0.1-0.9,0.4-1.3
		l24.4-31.8c0.4-0.5,1-0.8,1.6-0.8c0.2,0,0.3,0,0.5,0.1c0.8,0.2,1.4,0.9,1.5,1.7c0.8,5.4,1.2,10.9,1.2,16.3c0,25.5-9.2,49.9-26.1,69
		C296.8,219.5,296.3,219.7,295.7,219.7z"/>
	<linearGradient id="SVGID_13_" gradientUnits="userSpaceOnUse" x1="124.8233" y1="307.7358" x2="124.8233" y2="99.5726">
		<stop  offset="0" style="stop-color:#3C7536"/>
		<stop  offset="1" style="stop-color:#9DD115"/>
	</linearGradient>
	<path fill="url(#SVGID_13_)" d="M132.2,205.2c-0.7,0-1.4-0.4-1.8-1c-9.8-16.2-15.1-34.8-15.1-53.9c0-19,5.1-37.7,14.9-53.9
		c0.4-0.6,1.1-1,1.8-1c0.2,0,0.4,0,0.6,0.1c0.9,0.2,1.5,1.1,1.5,2l0.2,105.7c0,0.9-0.6,1.7-1.5,2
		C132.6,205.1,132.4,205.2,132.2,205.2z"/>
	<linearGradient id="SVGID_14_" gradientUnits="userSpaceOnUse" x1="160.0142" y1="307.1438" x2="160.0142" y2="100.0324">
		<stop  offset="0" style="stop-color:#3C7536"/>
		<stop  offset="1" style="stop-color:#9DD115"/>
	</linearGradient>
	<path fill="url(#SVGID_14_)" d="M171.2,242c-0.3,0-0.7-0.1-1-0.2c-8.3-4.5-15.9-10-22.8-16.5c-0.4-0.4-0.6-0.9-0.6-1.5v-31.1
		c0-0.9,0.6-1.7,1.5-2c0.2-0.1,0.4-0.1,0.6-0.1c0.7,0,1.3,0.3,1.7,0.9c6.9,10.2,14.2,17.9,21.7,22.8c0.6,0.4,0.9,1,0.9,1.7v24
		c0,0.7-0.4,1.4-1,1.8C171.9,241.9,171.5,242,171.2,242z"/>
	<linearGradient id="SVGID_15_" gradientUnits="userSpaceOnUse" x1="180.6762" y1="307.8688" x2="180.6762" y2="99.5292">
		<stop  offset="0" style="stop-color:#3C7536"/>
		<stop  offset="1" style="stop-color:#9DD115"/>
	</linearGradient>
	<path fill="url(#SVGID_15_)" d="M184.2,150.8c-1-0.1-1.7-0.8-1.9-1.7c-2.1-14.2-5.3-28.4-9.3-42.2l-12-41c-0.3-0.9,0.1-1.9,0.8-2.4
		c11-7.4,23.2-12.4,36.2-15.2c0.1,0,0.3,0,0.4,0c0.5,0,0.9,0.2,1.3,0.5c0.5,0.4,0.8,1,0.8,1.6V64c0,22.4-5.7,56.7-14.1,85.3
		c-0.3,0.9-1.1,1.5-2,1.5C184.3,150.8,184.3,150.8,184.2,150.8z"/>
	<linearGradient id="SVGID_16_" gradientUnits="userSpaceOnUse" x1="199.0679" y1="307.1926" x2="199.0679" y2="99.7254">
		<stop  offset="0" style="stop-color:#3C7536"/>
		<stop  offset="1" style="stop-color:#9DD115"/>
	</linearGradient>
	<path fill="url(#SVGID_16_)" d="M210.2,253.6c-7.8-0.7-15.6-2.3-23.1-4.7c-0.8-0.3-1.4-1.1-1.4-2l0.1-51.2c0-2.7,0-5.6-0.1-8.7
		c0-0.3,0.1-0.7,0.2-1c5-9.8,9.9-23.3,14.3-39.3c0.2-0.9,1.1-1.5,2-1.5c0,0,0.1,0,0.1,0c1,0,1.8,0.8,1.9,1.7
		c5.8,34.6,7.7,84.5,8.2,104.6c0,0.6-0.2,1.2-0.6,1.6c-0.4,0.4-0.9,0.6-1.4,0.6C210.3,253.7,210.3,253.7,210.2,253.6z"/>
</g>
<g>
	<defs>
		<path id="SVGID_17_" d="M50.6,374.9c-2.5-1.1-4.7-2.5-6.5-4.4c-1.8-1.8-3.2-4.1-4.2-6.7s-1.5-5.5-1.5-8.7c0-3,0.5-5.8,1.5-8.4
			c1-2.6,2.4-4.9,4.2-6.9c1.8-1.9,3.9-3.4,6.4-4.5c2.5-1.1,5.3-1.6,8.4-1.6c3,0,5.7,0.5,8.2,1.6c2.5,1.1,4.7,2.6,6.5,4.5
			c1.8,1.9,3.2,4.2,4.2,6.8c1,2.6,1.4,5.5,1.4,8.6c0,3.1-0.5,5.9-1.4,8.5c-1,2.6-2.4,4.8-4.2,6.7c-1.8,1.9-4,3.4-6.5,4.5
			c-2.5,1.1-5.3,1.6-8.2,1.6C55.9,376.5,53.2,376,50.6,374.9 M25.7,292.8c-1.4,1.1-2.1,2.9-2.1,5.3V352c0,6.4,0.9,12,2.6,16.7
			c1.8,4.7,4.2,8.7,7.4,11.9c3.2,3.2,6.9,5.5,11.3,7.1c4.4,1.6,9.1,2.4,14.3,2.4c5.2,0,10-0.9,14.3-2.6c4.4-1.8,8.1-4.2,11.3-7.3
			c3.2-3.1,5.6-6.8,7.4-11.1c1.8-4.3,2.6-9,2.6-14c0-5.1-0.9-9.8-2.6-14c-1.7-4.3-4.1-8-7.1-11.1c-3-3.1-6.6-5.5-10.7-7.3
			c-4.1-1.7-8.5-2.6-13.4-2.6c-5,0-9.5,1-13.3,3c-3.9,2-6.9,4.4-9.1,7.2v-37.8c-0.4-0.2-1.3-0.5-2.6-0.9c-1.3-0.4-2.8-0.6-4.4-0.6
			C29,291.1,27.1,291.7,25.7,292.8 M110.3,323.7c-1.4,1.1-2.1,2.9-2.1,5.3v59.2h15v-64.7c-0.4-0.2-1.3-0.5-2.6-0.9
			c-1.3-0.4-2.8-0.6-4.4-0.6C113.7,322.1,111.7,322.6,110.3,323.7 M109.3,295c-1.8,1.8-2.6,3.9-2.6,6.5c0,2.5,0.9,4.7,2.6,6.5
			c1.8,1.8,3.9,2.6,6.5,2.6c2.5,0,4.7-0.9,6.5-2.6c1.8-1.8,2.6-3.9,2.6-6.5c0-2.6-0.9-4.7-2.6-6.5c-1.8-1.8-3.9-2.6-6.5-2.6
			C113.2,292.4,111,293.3,109.3,295 M146.8,326.9c-5,4.4-7.4,10.7-7.4,18.8v42.6h15V350c0-10.9,5.1-16.4,15.4-16.4
			c2.8,0,5.3,0.3,7.5,0.9c2.2,0.6,4,1.3,5.5,2c0.5-0.3,1.2-1.2,2-2.6c0.8-1.4,1.3-2.9,1.3-4.4c0-3.2-1.7-5.5-5.2-7.1
			c-3.5-1.5-8-2.3-13.5-2.3C158.6,320.2,151.7,322.4,146.8,326.9 M212.2,322.5c-4.4,1.5-8.3,3.8-11.5,6.8c-3.3,3-5.8,6.7-7.6,11.1
			c-1.8,4.4-2.8,9.4-2.8,15c0,5.6,0.9,10.6,2.8,14.9c1.9,4.3,4.5,7.9,7.7,10.9c3.3,2.9,7,5.2,11.3,6.7c4.3,1.5,8.9,2.2,13.8,2.2
			c3.2,0,6-0.2,8.5-0.7c2.5-0.4,4.7-1,6.7-1.6c2-0.7,3.7-1.4,5.3-2.1c1.5-0.7,2.8-1.5,3.9-2.2l-6.3-11.2c-1,0.6-2.8,1.5-5.5,2.7
			c-2.7,1.2-6.2,1.8-10.6,1.8c-3.1,0-5.9-0.4-8.6-1.3c-2.6-0.8-5-2.1-7-3.9c-2-1.8-3.6-4-4.7-6.7c-1.1-2.7-1.7-6-1.7-9.9
			c0-3.7,0.5-6.9,1.6-9.6c1.1-2.7,2.6-4.9,4.5-6.7c1.9-1.8,4.1-3.1,6.7-4c2.6-0.9,5.4-1.3,8.4-1.3c4.4,0,8.1,0.7,11.1,2
			c3,1.4,5.3,2.8,6.9,4.3c1.1-0.8,2.2-1.9,3.4-3.4c1.2-1.5,1.8-3.1,1.8-4.9c0-1.3-0.4-2.6-1.3-4c-0.8-1.3-2.2-2.5-4.1-3.6
			c-1.9-1.1-4.4-1.9-7.4-2.6c-3-0.7-6.7-1.1-11-1.1C221.4,320.2,216.6,321,212.2,322.5 M261,292.8c-1.4,1.1-2.1,2.9-2.1,5.3v90.2h15
			v-35.5c0-5.7,1.5-10.3,4.5-13.8c3-3.5,7.5-5.2,13.5-5.2c5.9,0,10,1.5,12.5,4.5c2.4,3,3.6,7.4,3.6,13.2v36.8h15V347
			c0-4.5-0.7-8.4-2-11.7c-1.3-3.3-3.2-6.1-5.7-8.4c-2.5-2.2-5.4-3.9-8.8-5.1c-3.4-1.1-7.1-1.7-11.1-1.7c-5.6,0-10.2,0.9-13.7,2.8
			c-3.5,1.8-6.2,3.8-7.9,5.9v-36.3c-0.4-0.2-1.3-0.5-2.6-0.9c-1.3-0.4-2.8-0.6-4.4-0.6C264.4,291.1,262.4,291.7,261,292.8
			 M341.2,323.7c-1.4,1.1-2.1,2.9-2.1,5.3v59.2h15v-64.7c-0.4-0.2-1.3-0.5-2.6-0.9c-1.3-0.4-2.8-0.6-4.4-0.6
			C344.6,322.1,342.6,322.6,341.2,323.7 M340.2,295c-1.8,1.8-2.6,3.9-2.6,6.5c0,2.5,0.9,4.7,2.6,6.5c1.8,1.8,3.9,2.6,6.5,2.6
			c2.5,0,4.7-0.9,6.5-2.6c1.8-1.8,2.6-3.9,2.6-6.5c0-2.6-0.9-4.7-2.6-6.5c-1.8-1.8-3.9-2.6-6.5-2.6
			C344.1,292.4,341.9,293.3,340.2,295 M373,292.8c-1.4,1.1-2.1,2.9-2.1,5.3v90.2h15v-95.7c-0.4-0.2-1.3-0.5-2.6-0.9
			c-1.3-0.4-2.8-0.6-4.4-0.6C376.4,291.1,374.4,291.7,373,292.8 M417.7,317.7v-25.2c-0.4-0.2-1.3-0.5-2.6-0.9
			c-1.3-0.4-2.8-0.6-4.4-0.6c-2.6,0-4.5,0.6-5.9,1.7c-1.4,1.1-2.1,2.9-2.1,5.3v90.2h15v-55.8l14.9-28.6L417.7,317.7z"/>
	</defs>
	<clipPath id="SVGID_18_">
		<use xlink:href="#SVGID_17_"  overflow="visible"/>
	</clipPath>
	
		<linearGradient id="SVGID_19_" gradientUnits="userSpaceOnUse" x1="-865.8254" y1="646.0789" x2="-863.3676" y2="646.0789" gradientTransform="matrix(0 -31.7186 -31.7186 0 20721.1973 -27046.9531)">
		<stop  offset="0.1434" style="stop-color:#3C7536"/>
		<stop  offset="1" style="stop-color:#9DD115"/>
	</linearGradient>
	<rect x="23.5" y="291.1" clip-path="url(#SVGID_18_)" fill="url(#SVGID_19_)" width="409.9" height="99"/>
	<g clip-path="url(#SVGID_18_)">
		<defs>
			<path id="SVGID_20_" d="M47.7,323.2c-3.9,2-6.9,4.4-9.1,7.2v22.2c0.2-2,0.7-4,1.4-5.8c1-2.6,2.4-4.9,4.2-6.9
				c1.8-1.9,3.9-3.4,6.4-4.5c2.5-1.1,5.3-1.6,8.4-1.6c1.4,0,2.8,0.1,4.1,0.4v-13.8c-0.6,0-1.3,0-1.9,0
				C56,320.2,51.5,321.2,47.7,323.2"/>
		</defs>
		<clipPath id="SVGID_21_">
			<use xlink:href="#SVGID_20_"  overflow="visible"/>
		</clipPath>
		
			<linearGradient id="SVGID_22_" gradientUnits="userSpaceOnUse" x1="-829.9659" y1="677.469" x2="-827.7189" y2="677.469" gradientTransform="matrix(18.4954 -2.0642 -2.0642 -18.4954 16767.5762 11156.8018)">
			<stop  offset="0" style="stop-color:#3C7536"/>
			<stop  offset="1" style="stop-color:#9DD115"/>
		</linearGradient>
		<polygon clip-path="url(#SVGID_21_)" fill="url(#SVGID_22_)" points="35,320.6 62.6,317.5 66.5,352.2 38.9,355.3 		"/>
	</g>
	<g clip-path="url(#SVGID_18_)">
		<defs>
			<path id="SVGID_23_" d="M274,310.7v46.4h0v-4.3c0-5.7,1.5-10.3,4.5-13.8c3-3.5,7.5-5.2,13.5-5.2c2.4,0,4.5,0.2,6.3,0.7v-14.4
				c-0.9-0.1-1.8-0.1-2.7-0.1c-5.6,0-10.2,0.9-13.7,2.8c-3.5,1.8-6.2,3.8-7.9,5.9L274,310.7L274,310.7z"/>
		</defs>
		<clipPath id="SVGID_24_">
			<use xlink:href="#SVGID_23_"  overflow="visible"/>
		</clipPath>
		
			<linearGradient id="SVGID_25_" gradientUnits="userSpaceOnUse" x1="-822.9903" y1="676.8242" x2="-820.7433" y2="676.8242" gradientTransform="matrix(18.4954 -2.0642 -2.0642 -18.4954 16872.332 11156.8018)">
			<stop  offset="0" style="stop-color:#3C7536"/>
			<stop  offset="1" style="stop-color:#9DD115"/>
		</linearGradient>
		<polygon clip-path="url(#SVGID_24_)" fill="url(#SVGID_25_)" points="268.8,311.3 298,308 303.4,356.5 274.3,359.8 		"/>
	</g>
</g>
<g>
</g>
<g>
</g>
<g>
</g>
<g>
</g>
<g>
</g>
</svg>
